<svg width="144.451" height="160.358" viewBox="0 0 144.451 160.358" xmlns="http://www.w3.org/2000/svg"><path d="M112.222 33.638c-9.92 3.311-14.697 9.25-17.951 18.5-.84 2.471-2.94 5.204-5.302 7.044l8.136 8.725-25.825-18.08L0 0s5.144 33.428 6.929 45.727c1.26 8.672 3.411 12.561 10.235 16.503l2.73 1.472 11.757 6.202-6.981-3.627 32.228 17.608-.21.473-34.695-16.084c1.837 6.308 5.406 18.449 6.929 23.81 1.627 5.781 3.464 7.884 9.08 9.934l10.34 3.784 6.404-2.523-8.135 5.414-40.68 51.665c27.032-25.123 49.918-34.058 66.662-41.364 21.363-9.25 34.223-15.189 42.621-36.528 5.984-14.98 10.655-34.164 16.587-41.575l12.65-16.188s-26.193 6.938-32.229 8.935z" fill="#3f00a5"/></svg>